<svg xmlns="http://www.w3.org/2000/svg" viewBox="0 0 128 22" class="we-logo-svg">
    <path class="st0"
          d="M12.6 21.4h-1.3l-2.7-9.4 -2 9.4H4.8L1.3 0.3h3l2 13.2 1.6-13.2H9.5l1.7 13.2 1.7-13.2h3L12.6 21.4z"></path>
    <path class="st0" d="M16.8 21.4V3.9h2.9v17.5H16.8z"></path>
    <path class="st0" d="M28.2 21.4l-4-8.9v8.8h-2.8V4l1.4 0 4 8.6V3.9h2.8v17.5L28.2 21.4z"></path>
    <path class="st0" d="M31.2 21.4V3.9h6.6v3.1h-3.7v4h3.2v3h-3.2v4.5h3.7v3.1H31.2z"></path>
    <path class="st0" d="M41.3 21.4V0.3h6.6v3.1h-3.7v5.7h3.2v3h-3.2v6.3h3.7v3.1H41.3z"></path>
    <path class="st0" d="M56.4 21.4l-4-8.9v8.8h-2.8V4l1.4 0 4 8.6V3.9h2.8v17.5L56.4 21.4z"></path>
    <path class="st0" d="M64.5 7v14.4h-2.9V7H59.3V3.9h7.5v3.1H64.5z"></path>
    <path class="st0" d="M73.6 21.4v-7.3h-2.4v7.3h-2.9V3.9h2.9v7.1h2.5v-7.1h2.9v17.5H73.6z"></path>
    <path class="st0"
          d="M82.5 21.7c-2.3 0-4-1.5-4-4.9V3.9h2.9V17c0 1.1 0.4 1.7 1.2 1.7 0.8 0 1.1-0.6 1.1-1.7V3.9h2.9v12.8C86.6 20.3 84.8 21.7 82.5 21.7z"></path>
    <path class="st0"
          d="M91.8 21.7c-1.2 0-2.5-0.5-3.7-1.5l0.9-3c0.8 0.8 1.7 1.4 2.6 1.4 0.8 0 1.2-0.6 1.2-1.5 0-0.9-0.4-1.6-2-3.5 -1.7-2-2.5-3.4-2.5-5.2 0-2.4 1.5-4.7 3.9-4.7 1.3 0 2.1 0.3 3.1 1.1l-1 3c-0.8-0.7-1.3-1-2-1 -0.7 0-1.2 0.5-1.2 1.4 0 0.8 0.4 1.4 1.8 3.1 1.9 2.3 2.6 3.7 2.6 5.6C95.6 19.5 94.3 21.7 91.8 21.7z"></path>
    <path class="st0" d="M97 21.4V3.9h2.9v17.5H97z"></path>
    <path class="st0"
          d="M107.6 21.4l-0.6-2.9h-2.6l-0.6 2.9h-2.8l3.6-17.5h2.2l3.5 17.5H107.6zM105.7 10.5l-0.8 5.1h1.6L105.7 10.5z"></path>
    <path class="st0"
          d="M114.7 21.7c-1.2 0-2.5-0.5-3.7-1.5l0.9-3c0.8 0.8 1.7 1.4 2.6 1.4 0.8 0 1.2-0.6 1.2-1.5 0-0.9-0.4-1.6-2-3.5 -1.7-2-2.5-3.4-2.5-5.2 0-2.4 1.5-4.7 3.9-4.7 1.3 0 2.1 0.3 3.1 1.1l-0.9 3c-0.8-0.7-1.3-1-2-1 -0.7 0-1.2 0.5-1.2 1.4 0 0.8 0.4 1.4 1.8 3.1 1.9 2.3 2.6 3.7 2.6 5.6C118.6 19.5 117.3 21.7 114.7 21.7z"></path>
    <path class="st0" d="M124.4 7v14.4h-2.9V7h-2.3V3.9h7.5v3.1H124.4z"></path>
    <path class="st0"
          d="M124.9 20.8c0-0.4 0.2-0.7 0.7-0.7 0.5 0 0.7 0.3 0.7 0.7 0 0.4-0.2 0.7-0.7 0.7C125.2 21.6 124.9 21.3 124.9 20.8zM126.3 20.8c0-0.4-0.2-0.6-0.6-0.6 -0.4 0-0.6 0.3-0.6 0.7 0 0.4 0.2 0.7 0.6 0.7C126.1 21.5 126.3 21.2 126.3 20.8zM125.7 20.9h-0.2v0.3h-0.1v-0.9h0.4c0.3 0 0.3 0.1 0.3 0.3 0 0.1 0 0.2-0.2 0.3l0.2 0.4h-0.2L125.7 20.9zM125.7 20.8c0.1 0 0.2 0 0.2-0.1 0-0.1 0-0.1-0.2-0.1h-0.3v0.3H125.7z"></path>
</svg>